<svg xmlns="http://www.w3.org/2000/svg" width="1600" height="480" viewBox="0 0 1600 480"><rect width="1600" height="480" fill="#f9ebd2"/><path d="M0 288 Q300 220 600 280 T1200 255 T1600 290 V480 H0" fill="#cba77c"/><path d="M0 390 Q400 365 800 390 T1600 385 V480 H0" fill="#efe0b8"/><path d="M0 412H1600" stroke="#d8c494" stroke-width="3" stroke-dasharray="8 28"/><rect y="80" width="1600" height="215" fill="#f5deb9"/><path d="M0 95H1600M0 290H1600" stroke="#c9a87c" stroke-width="12"/><rect x="120" y="125" width="160" height="125" rx="18" fill="#b8d7c8" stroke="#bfaa80" stroke-width="8"/><rect x="520" y="125" width="160" height="125" rx="18" fill="#b8d7c8" stroke="#bfaa80" stroke-width="8"/><rect x="920" y="125" width="160" height="125" rx="18" fill="#b8d7c8" stroke="#bfaa80" stroke-width="8"/><rect x="1320" y="125" width="160" height="125" rx="18" fill="#b8d7c8" stroke="#bfaa80" stroke-width="8"/><g transform="translate(350 315)"><rect x="-105" y="0" width="210" height="24" rx="10" fill="#bd8f64"/><path d="M-75 24V70M75 24V70" stroke="#a37c56" stroke-width="12"/><rect x="-72" y="-24" width="55" height="19" rx="6" fill="#e2e5c5"/><rect x="20" y="-24" width="55" height="19" rx="6" fill="#e2e5c5"/></g><g transform="translate(750 315)"><rect x="-105" y="0" width="210" height="24" rx="10" fill="#bd8f64"/><path d="M-75 24V70M75 24V70" stroke="#a37c56" stroke-width="12"/><rect x="-72" y="-24" width="55" height="19" rx="6" fill="#e2e5c5"/><rect x="20" y="-24" width="55" height="19" rx="6" fill="#e2e5c5"/></g><g transform="translate(1150 315)"><rect x="-105" y="0" width="210" height="24" rx="10" fill="#bd8f64"/><path d="M-75 24V70M75 24V70" stroke="#a37c56" stroke-width="12"/><rect x="-72" y="-24" width="55" height="19" rx="6" fill="#e2e5c5"/><rect x="20" y="-24" width="55" height="19" rx="6" fill="#e2e5c5"/></g><ellipse cx="70" cy="449" rx="22" ry="5" fill="#dccba5" opacity=".65"/><ellipse cx="200" cy="449" rx="22" ry="5" fill="#dccba5" opacity=".65"/><ellipse cx="330" cy="449" rx="22" ry="5" fill="#dccba5" opacity=".65"/><ellipse cx="460" cy="449" rx="22" ry="5" fill="#dccba5" opacity=".65"/><ellipse cx="590" cy="449" rx="22" ry="5" fill="#dccba5" opacity=".65"/><ellipse cx="720" cy="449" rx="22" ry="5" fill="#dccba5" opacity=".65"/><ellipse cx="850" cy="449" rx="22" ry="5" fill="#dccba5" opacity=".65"/><ellipse cx="980" cy="449" rx="22" ry="5" fill="#dccba5" opacity=".65"/><ellipse cx="1110" cy="449" rx="22" ry="5" fill="#dccba5" opacity=".65"/><ellipse cx="1240" cy="449" rx="22" ry="5" fill="#dccba5" opacity=".65"/><ellipse cx="1370" cy="449" rx="22" ry="5" fill="#dccba5" opacity=".65"/><ellipse cx="1500" cy="449" rx="22" ry="5" fill="#dccba5" opacity=".65"/></svg>
